<svg xmlns="http://www.w3.org/2000/svg" class="icon"> <svg viewBox="0 0 64 64" xmlns="http://www.w3.org/2000/svg"><path d="M20 44h-2a1 1 0 010-2h2a1 1 0 010 2zm19 0H24a1 1 0 010-2h15a1 1 0 010 2zm0 4H18a1 1 0 010-2h21a1 1 0 010 2zm0 4H18a1 1 0 010-2h21a1 1 0 010 2zm-3 4H18a1 1 0 010-2h18a1 1 0 010 2zM19 32h-1a1 1 0 010-2h1a1 1 0 010 2zm25 0H23a1 1 0 010-2h21a1 1 0 010 2zm-21 4h-5a1 1 0 010-2h5a1 1 0 010 2zm21 0H27a1 1 0 010-2h17a1 1 0 010 2z"/><path d="M52.707 10.293l-8-8A1 1 0 0044 2H10a1 1 0 00-1 1v58a1 1 0 001 1h36a1 1 0 000-2H11V4h31v7a1 1 0 001 1h8v23a1 1 0 002 0V11a1 1 0 00-.293-.707zM44 4.414L49.586 10H44z"/><path d="M25 8a3 3 0 00-3 3v12a3 3 0 003 3h12a3 3 0 003-3V11a3 3 0 00-3-3zm7 2v5.382l-.553-.277a1 1 0 00-.894 0l-.553.277V10zm6 1v12a1 1 0 01-1 1H25a1 1 0 01-1-1V11a1 1 0 011-1h3v7a1 1 0 001.447.895L31 17.118l1.553.777A1 1 0 0034 17v-7h3a1 1 0 011 1zm2 29H18a1 1 0 010-2h22a1 1 0 010 2zm12 22a1 1 0 01-.555-.168L47.789 59.4A12.973 12.973 0 0142 48.578V43a1 1 0 01.594-.914l9-4a1 1 0 01.812 0l9 4A1 1 0 0162 43v5.578A12.973 12.973 0 0156.211 59.4l-3.656 2.437A1 1 0 0152 62zm-8-18.35v4.928a10.976 10.976 0 004.9 9.152L52 59.8l3.1-2.068a10.976 10.976 0 004.9-9.154V43.65l-8-3.556z"/><path d="M50 54a1 1 0 01-.707-.293l-3-3a1 1 0 011.414-1.414L50 51.586l6.293-6.293a1 1 0 011.414 1.414l-7 7A1 1 0 0150 54z"/></svg> </svg>