<svg width="786" height="209" viewBox="0 0 786 209" fill="none" xmlns="http://www.w3.org/2000/svg">
<g clip-path="url(#clip0_271_27)">
<path d="M258.933 60.0689C258.4 62.4689 258 67.9355 258.133 72.0689V79.5355L260.4 73.6689C263.733 65.1355 268.267 62.2022 277.6 62.6022C281.867 62.7355 285.733 63.6689 286.267 64.6022C286.8 65.4022 287.333 80.7355 287.333 98.4689C287.333 133.936 287.2 134.869 279.2 134.869C276.8 134.869 275.467 135.402 276 136.202C276.533 137.002 283.333 137.536 292 137.536C300.667 137.536 307.467 137.002 308 136.202C308.533 135.402 307.2 134.869 304.8 134.869C296.8 134.869 296.667 134.069 296.667 97.5355C296.667 76.4689 297.2 64.0689 298 63.5355C298.8 63.0022 302.8 62.7355 306.933 62.7355C316.133 62.7355 320.4 65.5355 323.6 73.6689L325.867 79.5355V72.8689C325.867 66.7355 323.867 53.4022 323.467 57.1355C323.2 59.6689 261.2 59.6689 260.4 57.2689C260 56.3355 259.333 57.5355 258.933 60.0689Z" fill="white"/>
<path d="M42.6667 60.2024C35.0667 60.7358 34 61.0024 37.0667 61.9358C40.2667 62.8691 42 65.2691 48 77.9358C57.7333 98.7358 57.6 97.4024 52.6667 109.936C50.2667 115.936 47.8667 121.269 47.4667 121.936C46.2667 123.136 22 73.0024 21.0667 67.4024C20.4 63.6691 20.8 63.0024 24.1333 61.8024C27.3333 60.7358 25.3333 60.3358 14 60.3358L0 60.2024L4.53333 62.6024C8.66667 64.6024 10.8 68.3358 26.5333 101.269C40.2667 130.202 44.2667 137.269 45.4667 135.936C46.4 135.002 49.6 127.669 52.6667 119.536C55.7333 111.536 58.5333 104.336 58.9333 103.802C59.3333 103.136 63.4667 110.602 68.1333 120.336C73.3333 131.002 77.2 137.536 77.8667 136.736C78.5333 136.069 85.2 120.202 92.6667 101.536C100.133 82.8691 106.933 66.7358 107.733 65.6691C108.667 64.6024 111.067 63.0024 113.333 62.0691C117.067 60.4691 116.4 60.3358 105.333 60.3358C93.8667 60.3358 93.4667 60.3358 97.7333 62.2024C100 63.2691 102 65.0024 102 66.0691C102 70.2024 81.0667 122.869 79.4667 122.869C79.0667 122.869 75.4667 115.936 71.4667 107.402C63.2 90.0691 63.2 92.0691 72 72.6024C75.8667 64.3358 77.0667 62.8691 80.9333 61.6691C84.8 60.6024 84.1333 60.4691 75.4667 60.3358C66 60.2024 65.7333 60.2024 68.6667 62.6024L71.4667 64.8691L67.2 76.0691L62.8 87.1358L57.2 75.9358C50.8 63.4024 50.4 61.9358 53.7333 61.2691C58.8 60.2024 51.7333 59.5358 42.6667 60.2024Z" fill="white"/>
<path d="M190 60.3354C183.067 60.7354 178.533 61.1354 180.133 61.2688C186.133 61.8021 187.333 65.4021 187.333 81.2688V96.2021H164H140.667V81.1354C140.667 73.0021 141.2 65.4021 141.867 64.4688C142.4 63.5354 144.667 62.2021 146.8 61.5354C149.467 60.7354 146.133 60.4688 135.333 60.4688C124.933 60.4688 121.2 60.7354 123.733 61.5354C131.467 63.9354 131.333 63.1354 131.333 97.8021C131.333 117.269 130.8 130.736 130 132.336C129.2 133.802 127.2 134.869 125.333 134.869C123.467 134.869 122 135.402 122 136.202C122 137.002 127.6 137.536 136 137.536C150.267 137.536 153.467 136.469 145.733 134.202L141.333 132.869L140.933 115.802L140.533 98.8688H164H187.333V114.736C187.333 131.669 186.267 134.869 180.533 134.869C179.2 134.869 178 135.402 178 136.202C178 137.002 183.6 137.536 192 137.536C200.4 137.536 206 137.002 206 136.202C206 135.402 204.533 134.869 202.667 134.869C200.8 134.869 198.8 133.802 198 132.336C197.2 130.736 196.667 117.536 196.667 98.6021C196.667 65.1354 197.2 62.2021 203.733 61.2688C210.8 60.2021 201.867 59.5354 190 60.3354Z" fill="white"/>
<path d="M337.333 60.2024C336.933 61.0024 338 61.5358 339.867 61.5358C347.067 61.5358 347.333 62.8691 347.333 97.6691C347.333 117.269 346.8 130.736 346 132.336C345.2 133.802 343.2 134.869 341.333 134.869C339.6 134.869 337.733 135.536 337.333 136.202C336.8 137.136 345.333 137.536 363.6 137.269L390.667 136.869L390.933 128.202L391.2 119.536L388.533 125.669C385.2 133.269 382 134.869 370.133 134.869C355.867 134.869 355.2 133.936 355.6 114.202L356 98.2024L363.333 97.8024C375.067 97.1358 379.2 98.3358 381.333 103.269C383.2 107.269 383.2 107.002 383.067 96.2024C383.067 89.9358 382.667 86.2024 382.4 87.8024C382.133 89.5358 380.267 92.0691 378.267 93.5358C375.467 95.8024 373.333 96.2024 365.467 95.9358L356 95.5358L355.6 81.8024C355.067 63.4024 355.467 62.8691 368.133 62.8691C373.6 62.8691 379.2 63.4024 380.533 64.2024C381.867 64.8691 384.133 68.0691 385.467 71.1358L388 76.8691L388.4 69.6691C388.667 65.8024 388.533 61.6691 388.133 60.7358C387.6 59.2691 382.4 58.8691 362.8 58.8691C347.867 58.8691 337.867 59.4024 337.333 60.2024Z" fill="white"/>
<path d="M517.333 59.9357L513.333 60.469L517.867 62.6023C522 64.6023 524 68.2023 539.733 101.269C553.467 129.802 557.467 137.269 558.8 135.936C559.6 135.002 562.267 129.136 564.667 122.869C567.067 116.602 569.867 109.402 570.933 106.869L572.8 102.202L581.6 120.202C588.267 134.202 590.534 137.802 591.6 136.202C592.267 135.136 599.334 118.336 607.067 99.0023C621.067 64.3357 621.467 63.669 626 62.069C630.4 60.469 629.867 60.469 618.667 60.469C612.134 60.469 608.134 60.869 609.867 61.4023C615.334 62.869 616 65.669 613.067 74.3357C609.2 85.8023 593.734 122.869 592.8 122.869C591.734 122.736 578 93.269 578 91.0023C578 90.069 580.4 83.669 583.467 76.7357C588.267 65.8023 589.467 64.2023 593.734 62.3357L598.667 60.3357L588 60.469C582.133 60.469 578.533 60.869 580 61.1357C581.467 61.5357 583.067 62.469 583.6 63.269C584.933 65.5357 577.867 85.5357 575.6 85.5357C574.667 85.4023 564.533 64.469 564.667 62.469C564.667 61.9357 565.733 61.5357 567.067 61.5357C568.533 61.5357 568.8 61.1357 567.867 60.469C566.933 59.9357 561.867 59.8023 556.667 59.9357C548.133 60.3357 547.333 60.6023 550.133 62.069C554.533 64.2023 558.133 69.9357 564.667 85.4023L570.4 98.7357L566 109.802C563.6 115.936 561.2 121.402 560.667 121.936C559.2 123.536 535.067 72.069 534.8 67.0023C534.667 63.1357 535.2 62.2023 538 61.5357C541.733 60.469 524.133 59.269 517.333 59.9357Z" fill="white"/>
<path d="M650.8 63.1354C645.467 75.8021 629.2 112.869 625.067 121.802C621.067 130.602 619.6 132.469 615.733 133.802C613.333 134.736 611.333 135.936 611.333 136.469C611.333 137.802 638.533 137.936 639.867 136.602C640.4 136.069 638.267 135.002 635.067 134.202C626.4 132.202 625.733 128.602 631.333 115.002L635.867 104.202H651.2H666.667L672.4 116.069C679.2 130.336 679.467 133.269 674 134.336C665.6 136.069 670.533 137.536 684.667 137.536C698.8 137.536 703.6 136.069 695.334 134.202C693.067 133.669 690.4 131.936 689.2 130.202C688.134 128.602 680.133 111.936 671.333 93.4021C662.533 74.7354 654.8 59.4021 654 59.1354C653.2 58.8687 651.733 60.6021 650.8 63.1354ZM658 85.9354C661.2 93.0021 663.333 99.4021 662.8 99.9354C661.333 101.269 638 101.669 638 100.202C638 97.5354 650.533 70.8687 651.333 71.8021C651.733 72.3354 654.8 78.7354 658 85.9354Z" fill="white"/>
<path d="M221.6 62.2021C225.333 63.8021 225.867 64.7354 226.667 71.2688C227.2 75.1354 227.333 90.2021 227.067 104.469C226.667 131.669 226 134.869 220.533 134.869C219.067 134.869 218 135.402 218 136.202C218 137.002 223.333 137.536 231.333 137.536C238.667 137.536 244.667 137.002 244.667 136.469C244.667 135.936 242.8 134.736 240.667 133.936L236.667 132.469L236.933 97.9354L237.333 63.5354L242 61.9354C246.133 60.4688 245.067 60.3354 232 60.3354C218.4 60.3354 217.6 60.4688 221.6 62.2021Z" fill="white"/>
<path d="M708.4 62.8688L714 65.4021V96.0688C714 112.869 713.467 128.202 712.667 130.202C711.867 132.469 710 133.802 707.333 134.336C699.467 135.936 703.467 137.536 715.467 137.536C723.067 137.536 727.2 137.002 726.667 136.202C726.267 135.402 724.667 134.869 723.333 134.869C721.867 134.869 719.867 133.402 718.667 131.669C716.933 129.136 716.667 123.802 716.933 99.0021L717.333 69.5354L746 104.069L774.667 138.602L775.333 102.202C775.733 80.4689 776.533 65.1354 777.333 64.3354C778.133 63.6688 780.8 62.4688 783.333 61.8021C787.333 60.6021 786 60.4688 775.333 60.3354L762.667 60.2021L767.333 62.6021L772 64.8689L772.4 92.8689C772.667 116.602 772.4 120.469 770.933 118.869C768.267 115.936 732.933 74.0688 726.8 66.4688L721.733 60.2021H712.133H702.667L708.4 62.8688Z" fill="white"/>
<path d="M346.667 196.869C346.667 206.469 346.933 208.202 348.933 208.202C350.667 208.202 350.933 207.269 350.4 202.736L349.6 197.136L353.867 197.802C357.333 198.336 358 197.936 358 195.669C358 193.536 357.6 193.402 356.8 194.602C354.667 197.936 350.667 195.936 350.667 191.536C350.667 188.336 351.333 187.402 353.733 187.136C355.467 186.869 357.733 187.402 358.8 188.202C360.267 189.536 360.667 189.402 360.667 187.669C360.667 185.936 359.2 185.536 353.733 185.536H346.667V196.869Z" fill="white"/>
<path d="M370.133 194.202C367.867 199.269 365.333 204.602 364.667 205.802C363.6 207.669 363.733 208.202 365.2 208.202C366.133 208.202 367.333 206.336 367.867 204.202C368.533 200.869 369.2 200.202 372.533 200.202C376.667 200.202 380.267 204.202 378.667 206.869C378.133 207.669 379.467 208.202 381.467 208.202C384.133 208.202 384.667 207.802 383.6 206.469C382.8 205.669 380.4 200.336 378.267 194.869L374.267 184.869L370.133 194.202ZM373.733 198.602C370 199.269 369.6 198.469 371.6 194.202L373.2 190.469L374.8 194.336C376.267 197.802 376.133 198.202 373.733 198.602Z" fill="white"/>
<path d="M390.267 187.136C387.067 190.336 388.533 194.469 394 198.069C397.067 200.069 399.333 202.602 399.333 204.069C399.333 207.669 394.4 208.602 391.2 205.402C388.8 203.002 388.667 203.002 388.667 205.402C388.667 210.336 400.533 209.802 402.533 204.869C403.733 201.669 401.467 198.202 396 195.002C390.4 191.669 389.467 186.869 394.667 186.869C396.4 186.869 398.533 187.936 399.2 189.136C400.4 191.269 400.533 191.269 400.667 188.469C400.667 186.069 400 185.536 396.267 185.536C393.867 185.536 391.2 186.202 390.267 187.136Z" fill="white"/>
<path d="M406 186.869C406 187.669 407.467 187.936 409.467 187.402L412.933 186.469L412.4 197.402C412 206.869 412.267 208.202 414.267 208.202C416.267 208.202 416.533 206.736 416.4 197.802C416.267 189.002 416.533 187.536 418.667 187.136C420 186.869 421.467 187.402 422.133 188.469C423.067 189.802 423.333 189.669 423.333 187.802C423.333 185.936 422 185.536 414.667 185.536C409.733 185.536 406 186.069 406 186.869Z" fill="white"/>
<path d="M444.667 187.536C443.067 189.536 443.867 196.202 445.733 196.202C446.267 196.202 448.8 197.936 451.333 200.202C455.733 203.936 455.867 204.336 453.6 206.069C450.8 208.202 447.6 207.536 445.067 204.336C443.6 202.469 443.467 202.602 443.333 205.002C443.333 211.002 456.933 209.269 457.733 203.269C458.133 201.002 456.667 199.136 452 195.936C445.867 191.536 444.667 187.936 449.067 187.136C450.4 186.869 452.667 187.669 454.133 189.002C456.533 191.136 456.667 191.136 456.667 188.469C456.667 185.936 455.867 185.536 451.467 185.536C448.533 185.536 445.6 186.336 444.667 187.536Z" fill="white"/>
<path d="M486.667 196.869C486.667 206.069 487.067 208.202 488.667 208.202C490.267 208.202 490.667 207.002 490.267 202.736C489.733 197.136 489.733 197.136 493.867 197.802C496.667 198.202 498 197.802 498 196.736C498 195.402 496.8 195.136 494 195.669C490.133 196.469 490 196.336 490 191.669C490 187.269 490.267 186.869 493.733 186.869C495.733 186.869 498.267 187.669 499.2 188.469C500.667 189.936 500.933 189.802 500.4 188.202C500 186.869 497.6 186.069 493.2 185.802L486.667 185.402V196.869Z" fill="white"/>
<path d="M505.333 196.869V208.336L512.533 207.936C517.6 207.669 520 206.869 520.4 205.536C520.933 203.936 520.667 203.802 519.2 205.136C518.267 206.069 515.467 206.869 513.067 206.869C508.933 206.869 508.667 206.602 508.667 202.069C508.667 197.402 508.8 197.269 513.333 197.802C516.4 198.202 518 197.802 518 196.736C518 195.536 516.533 195.269 513.333 195.802C508.667 196.602 508.667 196.469 508.667 191.669C508.667 187.136 508.933 186.869 513.2 186.869C515.733 186.869 518.133 187.669 518.4 188.469C518.8 189.536 519.2 189.269 519.2 187.802C519.333 185.936 518.133 185.536 512.4 185.536H505.333V196.869Z" fill="white"/>
<path d="M541.333 196.869C541.333 206.736 541.6 208.202 543.6 208.202C545.6 208.202 545.867 207.402 545.2 203.669C544.267 197.002 546.667 196.602 550.933 202.736C553.067 205.669 555.467 208.069 556.4 208.202C558.533 208.202 558.533 208.069 554.667 203.002L551.467 198.469L554.133 195.136C558 190.202 555.067 186.336 547.2 185.802L541.333 185.402V196.869ZM551.333 188.869C553.2 191.136 552.267 194.602 549.333 195.802C546.133 196.869 544.133 194.202 545.2 190.336C546.133 186.469 548.8 185.802 551.333 188.869Z" fill="white"/>
<path d="M564 196.869V208.336L571.2 207.936C576.267 207.669 578.667 206.869 579.067 205.536C579.6 203.936 579.333 203.802 577.867 205.136C576.933 206.069 574.133 206.869 571.733 206.869C567.6 206.869 567.333 206.602 567.333 202.069C567.333 197.402 567.467 197.269 572 197.802C575.067 198.202 576.667 197.802 576.667 196.736C576.667 195.536 575.2 195.269 572 195.802C567.333 196.602 567.333 196.469 567.333 191.536V186.602L572.667 187.136C575.6 187.402 578 187.136 578 186.602C578 185.936 574.8 185.536 571.067 185.536H564V196.869Z" fill="white"/>
<path d="M584 196.869V208.336L591.2 207.936C596.267 207.669 598.667 206.869 599.067 205.536C599.6 203.802 599.467 203.802 597.6 205.269C596.4 206.202 593.867 206.869 591.733 206.602L588 206.202V195.802C588 187.536 587.6 185.536 586 185.536C584.4 185.536 584 187.669 584 196.869Z" fill="white"/>
<path d="M604 196.869C604 206.202 604.4 208.202 606 208.202C607.733 208.202 608 206.602 607.6 198.869C607.2 192.736 607.6 188.869 608.667 187.536C610 185.802 609.867 185.536 607.2 185.536C604.133 185.536 604 185.802 604 196.869Z" fill="white"/>
<path d="M622.267 187.802C621.6 189.136 619.733 193.802 618 198.202C616.267 202.602 614.133 206.602 613.467 207.136C612.667 207.669 613.333 208.202 614.933 208.202C616.933 208.202 617.733 207.536 617.2 206.336C616.8 205.269 617.733 203.136 619.2 201.669C620.8 200.069 621.467 198.869 620.8 198.869C620 198.869 620 197.136 620.933 194.736L622.4 190.469L624.4 194.336C625.733 197.002 625.867 198.202 624.8 198.602C624 198.869 623.333 199.669 623.333 200.336C623.333 201.136 624 201.269 624.8 200.869C625.467 200.336 626.8 201.802 627.733 204.069C628.667 206.736 630.133 208.202 631.733 208.202C633.6 208.202 634 207.802 633.067 206.469C632.267 205.669 630 200.469 628 195.136C625.867 189.936 624 185.536 623.867 185.536C623.6 185.536 622.933 186.602 622.267 187.802Z" fill="white"/>
<path d="M638.667 196.869V208.202H645.467C649.067 208.202 652.8 207.536 653.733 206.602C655.733 204.602 655.867 199.936 653.867 197.936C652.8 196.869 652.933 195.669 654.267 193.669C655.867 191.002 655.6 190.469 652.8 188.069C650.8 186.469 647.733 185.536 644.133 185.536H638.667V196.869ZM649.2 187.669C652.667 189.002 651.867 194.736 648.133 195.669C643.867 196.736 642 195.402 642 191.669C642 187.002 644.267 185.802 649.2 187.669ZM651.2 199.936C653.067 203.536 650.533 206.869 646 206.869C642.267 206.869 642 206.469 642 202.202C642 197.936 642.267 197.536 646 197.536C648.4 197.536 650.4 198.469 651.2 199.936Z" fill="white"/>
<path d="M660.667 187.536C661.733 188.869 662.133 192.736 661.733 198.869L661.2 208.336L668.533 207.936C673.6 207.669 676 206.869 676.4 205.536C676.933 203.936 676.667 203.802 675.2 205.136C674.267 206.069 671.467 206.869 668.933 206.869H664.4L664.933 196.202C665.333 185.802 665.333 185.536 662.133 185.536C659.467 185.536 659.333 185.802 660.667 187.536Z" fill="white"/>
<path d="M681.333 196.869V208.336L688.533 207.936C693.6 207.669 696 206.869 696.4 205.536C696.933 203.936 696.667 203.802 695.2 205.136C694.267 206.069 691.467 206.869 689.067 206.869C684.933 206.869 684.667 206.602 684.667 202.069C684.667 197.402 684.8 197.269 689.333 197.802C692.4 198.202 694 197.802 694 196.736C694 195.536 692.533 195.269 689.333 195.802C684.667 196.602 684.667 196.469 684.667 191.536V186.602L690 187.136C692.933 187.402 695.333 187.136 695.333 186.602C695.333 185.936 692.133 185.536 688.4 185.536H681.333V196.869Z" fill="white"/>
<path d="M466.667 195.802C464.667 200.869 462.533 205.669 461.733 206.469C460.667 207.802 460.933 208.202 462.533 208.202C463.733 208.202 464.667 207.136 464.667 205.802C464.667 202.469 467.2 200.202 470.933 200.202C474 200.202 477.333 204.602 476 206.869C475.467 207.669 476.8 208.202 478.8 208.202C481.467 208.202 482 207.802 480.933 206.469C480.133 205.669 478 200.869 476 195.802C474 190.869 471.867 186.869 471.333 186.869C470.8 186.869 468.667 190.869 466.667 195.802ZM472.4 195.536C473.867 198.602 473.733 198.869 470.533 198.869C467.867 198.869 467.2 198.336 467.867 196.736C468.267 195.536 468.667 194.069 468.667 193.402C468.667 191.002 470.933 192.336 472.4 195.536Z" fill="white"/>
<path d="M427.333 206.869C427.333 207.536 428 208.202 428.667 208.202C429.467 208.202 430 207.536 430 206.869C430 206.069 429.467 205.536 428.667 205.536C428 205.536 427.333 206.069 427.333 206.869Z" fill="white"/>
<path d="M524.667 206.869C524.667 207.536 525.333 208.202 526 208.202C526.8 208.202 527.333 207.536 527.333 206.869C527.333 206.069 526.8 205.536 526 205.536C525.333 205.536 524.667 206.069 524.667 206.869Z" fill="white"/>
<path d="M700.667 206.869C700.667 207.536 701.333 208.202 702 208.202C702.8 208.202 703.333 207.536 703.333 206.869C703.333 206.069 702.8 205.536 702 205.536C701.333 205.536 700.667 206.069 700.667 206.869Z" fill="white"/>
<path d="M469.676 83.702C477.452 94.516 485.015 104.961 488.18 117.804C490.774 128.332 488.644 137.43 480.499 144.817C468.409 155.782 451.145 151.378 441.362 139.122C433.853 129.716 435.002 118.831 435.742 108.02C435.852 106.407 436.409 104.711 438.658 104.383C441.384 106.349 440.55 109.308 440.513 111.914C440.424 118.21 440.871 124.31 443.495 130.234C447.081 138.33 453.306 143.02 461.787 144.955C473.997 147.741 484.82 135.158 482.081 121.525C479.963 110.978 474.513 102.031 468.053 93.646C459.83 82.9733 451.008 72.732 443.129 61.824C436.316 52.3913 430.215 42.4124 432.2 29.8461C435.687 7.77743 457.949 -6.86966 478.353 3.86592C489.728 9.85053 494.826 28.8037 487.42 37.9168C484.659 35.2849 485.236 31.7013 485.146 28.7274C484.65 12.321 476.245 7.52179 466.514 7.18731C453.658 6.74546 442.128 17.4144 440.604 30.0306C439.193 41.7112 444.182 51.1825 450.766 60.0366C456.707 68.0241 463.183 75.6245 469.676 83.702Z" fill="#F9B026"/>
<path d="M481.919 86.9811C475.597 79.5017 469.198 72.5676 463.554 65.081C456.883 56.2325 450.72 46.95 452.7 34.9703C453.346 31.0617 454.945 27.7377 458.577 25.7969C460.455 26.7382 460.052 28.1156 459.652 29.2841C455.741 40.7027 461.192 49.7382 467.699 58.1676C474.898 67.4947 482.788 76.302 490.273 85.4186C495.778 92.1242 498.595 100.128 500.622 108.336C501.4 111.489 501.659 115.194 497.312 118.623C495.917 105.788 489.597 96.254 481.919 86.9811Z" fill="#F9B026"/>
<path d="M438.746 82.0865C430.464 72.9257 423.584 63.4405 421.467 51.3701C420.523 45.9871 421.454 41.0038 424.275 36.229C427.02 37.4169 427.028 39.4382 426.966 41.134C426.438 55.4192 433.72 66.2761 442.551 76.5715C450.484 85.8209 459.063 94.5534 465.856 104.729C469.957 110.874 472.564 117.39 471.889 124.904C471.691 127.111 471.403 129.23 469.679 130.575C467.509 130.558 467.048 129.225 467.006 127.976C466.493 112.782 456.864 102.405 447.488 91.8862C444.663 88.7159 441.823 85.5585 438.746 82.0865Z" fill="#F9B026"/>
</g>
<defs>
<clipPath id="clip0_271_27">
<rect width="786" height="209" fill="white"/>
</clipPath>
</defs>
</svg>
