<svg xmlns="http://www.w3.org/2000/svg" class="icon"> <svg viewBox="0 0 64 64" xmlns="http://www.w3.org/2000/svg"><path d="M59 2H39a3 3 0 00-3 3v20a3 3 0 003 3h20a3 3 0 003-3V5a3 3 0 00-3-3zm-8 2v9.131l-1.445-.963a1 1 0 00-1.11 0L47 13.131V4zm9 21a1 1 0 01-1 1H39a1 1 0 01-1-1V5a1 1 0 011-1h6v11a1 1 0 001.555.832L49 14.2l2.445 1.63A1 1 0 0053 15V4h6a1 1 0 011 1zM13 62a1 1 0 01-.754-.343C11.828 61.177 2 49.831 2 44a11 11 0 0122 0c0 5.831-9.828 17.177-10.246 17.657A1 1 0 0113 62zm0-27a9.011 9.011 0 00-9 9c0 3.875 5.926 11.775 9 15.458 3.073-3.684 9-11.585 9-15.458a9.011 9.011 0 00-9-9z"/><path d="M13 49a5 5 0 115-5 5.006 5.006 0 01-5 5zm0-8a3 3 0 103 3 3 3 0 00-3-3z"/><path d="M57 62H18a1 1 0 010-2h39a3 3 0 000-6H32a5 5 0 010-10h15a3 3 0 000-6H32a5.006 5.006 0 01-5-5v-4a3 3 0 00-3-3H9a7 7 0 010-14h24a1 1 0 010 2H9a5 5 0 000 10h15a5.006 5.006 0 015 5v4a3 3 0 003 3h15a5 5 0 010 10H32a3 3 0 000 6h25a5 5 0 010 10z"/></svg> </svg>