<svg xmlns="http://www.w3.org/2000/svg" class="icon"> <svg viewBox="0 0 480 480" xmlns="http://www.w3.org/2000/svg"><path d="M160 0C93.726 0 40 53.726 40 120v88c.035 30.913 25.087 55.965 56 56h8v-16h-8c-22.08-.026-39.974-17.92-40-40v-88c0-57.438 46.562-104 104-104s104 46.562 104 104v88c-.026 22.08-17.92 39.974-40 40h-8v16h8c30.913-.035 55.965-25.087 56-56v-88C280 53.726 226.274 0 160 0zM65.928 377.032l5.848-9.208-13.512-8.576-5.848 9.216c-17.687 27.872-16.374 63.76 3.304 90.264V480h16v-24a7.999 7.999 0 00-1.752-5c-17.008-21.262-18.631-50.98-4.04-73.968zM440 0H336c-22.08.026-39.974 17.92-40 40v80c.026 22.08 17.92 39.974 40 40h16v32a8 8 0 0013.656 5.656L403.312 160H440c22.08-.026 39.974-17.92 40-40V40c-.026-22.08-17.92-39.974-40-40zm24 120c0 13.255-10.745 24-24 24h-40a8 8 0 00-5.656 2.344L368 172.688V152a8 8 0 00-8-8h-24c-13.255 0-24-10.745-24-24V40c0-13.255 10.745-24 24-24h104c13.255 0 24 10.745 24 24v80z"/><path d="M336 40h56v16h-56zm72 0h32v16h-32zm-72 32h104v16H336zm0 32h56v16h-56zm-68.416 264.464l-5.848-9.216-13.512 8.576 5.848 9.216c14.592 22.985 12.969 52.701-4.04 73.96a7.999 7.999 0 00-1.752 5v24h16v-21.272c19.678-26.504 20.991-62.392 3.304-90.264z"/><path d="M472 272h-72c-30.016.035-54.666 23.729-55.888 53.72L320 369.128V336c-.035-30.913-25.087-55.965-56-56h-29.24l-.216-.168-.144.168H216c-8.837 0-16-7.163-16-16v-18.824A80.002 80.002 0 00240 176v-64a80.165 80.165 0 00-9.6-37.968 8 8 0 00-10.4-3.44L84.592 134.304a8 8 0 00-4.592 7.24V176a80.002 80.002 0 0040 69.176V264c0 8.837-7.163 16-16 16H56c-30.913.035-55.965 25.087-56 56v144h16V336c.026-22.08 17.92-39.974 40-40h25.456l72.04 100.656a8 8 0 006.4 3.344H160a8.002 8.002 0 006.4-3.2l76-100.8H264c22.08.026 39.974 17.92 40 40v64a8 8 0 0014.992 3.88L356.704 336h45.864l-78 144h18.2L420.8 336h3.2c30.913-.035 55.965-25.087 56-56a8 8 0 00-8-8zM96 176v-29.376l123.528-58.128A64 64 0 01224 112v64c0 35.346-28.654 64-64 64-35.346 0-64-28.654-64-64zm64.168 202.496L135.48 344h50.688l-26 34.496zM198.272 328H124l-22.904-32H104c17.673 0 32-14.327 32-32v-11.688a79.94 79.94 0 0048 0V264c0 17.673 14.327 32 32 32h6.4l-24.128 32zM424 320h-63.2c3.825-18.613 20.198-31.979 39.2-32h63.2c-3.825 18.613-20.198 31.979-39.2 32z"/></svg> </svg>