<svg xmlns="http://www.w3.org/2000/svg" class="icon"> <svg viewBox="0 0 64 64" xmlns="http://www.w3.org/2000/svg"><path d="M61.326 12.055l-29-10a.985.985 0 00-.652 0l-29 10A1 1 0 002 13v48a1 1 0 001 1h4a1 1 0 001-1V26h48v35a1 1 0 001 1h4a1 1 0 001-1V13a1 1 0 00-.674-.945zM4 13.713l28-9.655 28 9.655V18H4zM6 60H4V20h2zm2-36v-4h48v4zm52 36h-2V20h2z"/><path d="M32 16a4 4 0 10-4-4 4 4 0 004 4zm0-6a2 2 0 11-2 2 2 2 0 012-2zm21 50h-4V45a1 1 0 00-1-1h-7V29a1 1 0 00-1-1H24a1 1 0 00-1 1v15h-7a1 1 0 00-1 1v15h-4a1 1 0 000 2h42a1 1 0 000-2zM39 46h2v5.382l-.553-.277a1 1 0 00-.894 0l-.553.277zm-6-16v5.382l-.553-.277a1 1 0 00-.894 0l-.553.277V30zm-8 0h4v7a1 1 0 001.447.9L32 37.118l1.553.777A1 1 0 0035 37v-7h4v14H25zm-1 16h1v5.382l-.553-.277a1 1 0 00-.894 0l-.553.277V46zm-7 0h4v7a1 1 0 001.447.9L24 53.118l1.553.777A1 1 0 0027 53v-7h4v14H17zm16 0h4v7a1 1 0 001.447.9L40 53.118l1.553.777A1 1 0 0043 53v-7h4v14H33z"/></svg> </svg>