<svg width="81" height="152" viewBox="0 0 81 152" fill="none" xmlns="http://www.w3.org/2000/svg">
<path d="M48.676 83.9652C56.452 94.7792 64.015 105.224 67.18 118.067C69.774 128.595 67.644 137.693 59.499 145.08C47.409 156.045 30.145 151.641 20.362 139.385C12.853 129.979 14.002 119.094 14.742 108.283C14.852 106.67 15.409 104.974 17.658 104.646C20.384 106.612 19.55 109.571 19.513 112.177C19.424 118.473 19.871 124.573 22.495 130.497C26.081 138.593 32.306 143.283 40.787 145.218C52.997 148.004 63.82 135.421 61.081 121.788C58.963 111.241 53.513 102.294 47.053 93.9092C38.83 83.2365 30.008 72.9952 22.129 62.0872C15.316 52.6545 9.21498 42.6756 11.2 30.1093C14.687 8.04062 36.949 -6.60647 57.353 4.12911C68.728 10.1137 73.826 29.0669 66.42 38.18C63.659 35.5481 64.236 31.9645 64.146 28.9906C63.65 12.5842 55.245 7.78498 45.514 7.4505C32.658 7.00865 21.128 17.6776 19.604 30.2938C18.193 41.9744 23.182 51.4457 29.766 60.2998C35.707 68.2873 42.183 75.8877 48.676 83.9652Z" fill="#F9B026"/>
<path d="M60.9191 87.5123C54.5971 80.0329 48.1981 73.0988 42.5541 65.6122C35.8831 56.7637 29.7201 47.4812 31.7001 35.5015C32.3461 31.5929 33.9451 28.2689 37.5771 26.3281C39.4551 27.2694 39.0521 28.6468 38.6521 29.8153C34.7411 41.2339 40.1921 50.2694 46.6991 58.6988C53.8981 68.0259 61.7881 76.8332 69.2731 85.9498C74.7781 92.6554 77.5951 100.659 79.6221 108.867C80.4001 112.02 80.6591 115.725 76.3121 119.154C74.9171 106.319 68.5971 96.7852 60.9191 87.5123Z" fill="#F9B026"/>
<path d="M17.746 82.6178C9.46405 73.457 2.58406 63.9718 0.467058 51.9014C-0.476942 46.5184 0.454041 41.5351 3.27504 36.7603C6.02004 37.9482 6.02805 39.9695 5.96605 41.6653C5.43805 55.9505 12.72 66.8074 21.551 77.1027C29.484 86.3521 38.063 95.0847 44.856 105.26C48.957 111.405 51.5641 117.921 50.8891 125.435C50.6911 127.642 50.403 129.761 48.679 131.106C46.509 131.089 46.0481 129.756 46.0061 128.507C45.4931 113.313 35.8641 102.936 26.4881 92.4175C23.6631 89.2472 20.823 86.0898 17.746 82.6178Z" fill="#F9B026"/>
</svg>
